<?xml version="1.0" encoding="UTF-8" standalone="no"?>
<!-- Created with Inkscape (http://www.inkscape.org/) -->

<svg
   xmlns:dc="http://purl.org/dc/elements/1.1/"
   xmlns:cc="http://creativecommons.org/ns#"
   xmlns:rdf="http://www.w3.org/1999/02/22-rdf-syntax-ns#"
   xmlns:svg="http://www.w3.org/2000/svg"
   xmlns="http://www.w3.org/2000/svg"
   xmlns:sodipodi="http://sodipodi.sourceforge.net/DTD/sodipodi-0.dtd"
   xmlns:inkscape="http://www.inkscape.org/namespaces/inkscape"
   width="64"
   height="64"
   viewBox="0 0 16.933334 16.933334"
   version="1.1"
   id="svg8"
   inkscape:version="0.92.4 (5da689c313, 2019-01-14)"
   sodipodi:docname="copyright.svg"
   inkscape:export-filename="C:\Users\אלי\source\repos\CodeLicenseHelper\assets\copyright.png"
   inkscape:export-xdpi="48.000004"
   inkscape:export-ydpi="48.000004">
  <defs
     id="defs2" />
  <sodipodi:namedview
     id="base"
     pagecolor="#ffffff"
     bordercolor="#666666"
     borderopacity="1.0"
     inkscape:pageopacity="0.0"
     inkscape:pageshadow="2"
     inkscape:zoom="0.24748738"
     inkscape:cx="-138.51546"
     inkscape:cy="-103.73126"
     inkscape:document-units="mm"
     inkscape:current-layer="layer1"
     showgrid="false"
     fit-margin-top="0"
     fit-margin-left="0"
     fit-margin-right="0"
     fit-margin-bottom="0"
     units="px"
     inkscape:window-width="1920"
     inkscape:window-height="1027"
     inkscape:window-x="-8"
     inkscape:window-y="-8"
     inkscape:window-maximized="1" />
  <metadata
     id="metadata5">
    <rdf:RDF>
      <cc:Work
         rdf:about="">
        <dc:format>image/svg+xml</dc:format>
        <dc:type
           rdf:resource="http://purl.org/dc/dcmitype/StillImage" />
        <dc:title />
      </cc:Work>
    </rdf:RDF>
  </metadata>
  <g
     inkscape:label="Layer 1"
     inkscape:groupmode="layer"
     id="layer1"
     transform="translate(-21.735859,-63.758592)">
    <path
       style="opacity:1;fill:#ffffff;fill-opacity:1;fill-rule:evenodd;stroke:#000000;stroke-width:2.36500001;stroke-linecap:butt;stroke-linejoin:miter;stroke-miterlimit:4;stroke-dasharray:none;stroke-dashoffset:0;stroke-opacity:1;paint-order:stroke fill markers"
       d="m 37.151534,72.225258 a 6.9490075,6.9490075 0 0 1 -6.949008,6.949007 6.9490075,6.9490075 0 0 1 -6.949007,-6.949007 6.9490075,6.9490075 0 0 1 6.949007,-6.949008 6.9490075,6.9490075 0 0 1 6.949008,6.949008 z"
       id="path4542" />
    <g
       aria-label="C"
       transform="matrix(0.320505,0,0,0.320505,-29.58981,-7.6490582)"
       style="font-style:normal;font-weight:normal;font-size:13.33333302px;line-height:2.75;font-family:sans-serif;letter-spacing:1.83000004px;word-spacing:0.02px;fill:#000000;fill-opacity:1;stroke:#000000;stroke-opacity:1;stroke-width:3.80961295;stroke-miterlimit:4;stroke-dasharray:none"
       id="flowRoot4534">
      <path
         d="m 198.21419,258.03687 0.45573,0.41927 q -0.47396,0.91145 -0.83854,1.85937 -2.11458,1.11198 -4.08333,1.56771 -1.95052,0.47396 -4.50261,0.47396 -4.77604,0 -8.07552,-1.67709 -3.29948,-1.67708 -5.08594,-4.72135 -1.76822,-3.04427 -1.76822,-6.98177 0,-5.66927 4.01041,-9.27865 4.02865,-3.6276 11.10156,-3.6276 2.35157,0 4.64844,0.41927 2.31511,0.41927 4.59375,1.27604 l 0.12761,0.27344 q -0.32813,0.98438 -0.45573,1.89583 -0.23698,1.58594 -0.36459,3.9375 h -1.53125 q -0.10937,-2.8802 -0.21875,-3.15364 -0.10937,-0.29167 -1.0026,-0.96615 -0.89323,-0.69271 -2.42448,-1.11198 -1.51302,-0.4375 -3.35417,-0.4375 -4.375,0 -6.96354,2.69792 -2.57031,2.69792 -2.57031,7.51042 0,5.21354 3.09896,8.4401 2.86198,2.98958 7.85677,2.98958 1.93229,0 3.60937,-0.40104 1.69532,-0.40104 3.73698,-1.40364 z"
         style="font-style:normal;font-variant:normal;font-weight:bold;font-stretch:normal;font-size:37.33333206px;line-height:61.33000183px;font-family:'Book Antiqua';-inkscape-font-specification:'Book Antiqua Bold';letter-spacing:1.85000002px;word-spacing:0.02px;stroke:#000000;stroke-opacity:1;stroke-width:3.80961295;stroke-miterlimit:4;stroke-dasharray:none"
         id="path817" />
    </g>
  </g>
</svg>
